# xmcd CD database file
#
# Track frame offsets:
#	150
#	14562
#	28017
#	48327
#	69769
#	88102
#	104422
#	119040
#	132153
#	145782
#
# Disc length: 2192 seconds
#
# Revision: 1
# Processed by: cddbd v1.5.2PL0 Copyright (c) Steve Scherf et al.
# Submitted via: CDex 1.82
#
DISCID=89088e0a
DTITLE=John Denver - Collections
DYEAR=2006
DGENRE=Country
TTITLE0=Take me home, country roads
TTITLE1=For Baby (for Bobbie)
TTITLE2=The weight
TTITLE3=Back home again
TTITLE4=Leaving on a jet plain
TTITLE5=Calypso
TTITLE6=Starwood in Aspen
TTITLE7=Follow me
TTITLE8=Annie's song
TTITLE9=Fly away
EXTD=YEAR: 2006
EXTT0=
EXTT1=
EXTT2=
EXTT3=
EXTT4=
EXTT5=
EXTT6=
EXTT7=
EXTT8=
EXTT9=
PLAYORDER=
